<svg aria-hidden="true" style="width:0;height:0;position:absolute;overflow:hidden" xmlns="http://www.w3.org/2000/svg"><defs><symbol id="icon-book-open" viewBox="0 0 32 32"><path stroke-linejoin="round" stroke-linecap="round" stroke-width="1.778" d="M2.667 4h8A5.332 5.332 0 0 1 16 9.333V28a4.003 4.003 0 0 0-4-4H2.667V4z"/><path stroke-linejoin="round" stroke-linecap="round" stroke-width="1.778" d="M29.333 4h-8A5.334 5.334 0 0 0 16 9.333V28a4.003 4.003 0 0 1 4-4h9.333V4z"/></symbol><symbol id="icon-heart-empty" viewBox="0 0 32 32"><path stroke-linejoin="round" stroke-linecap="round" stroke-width="2" d="M9.333 4c-3.681 0-6.667 2.955-6.667 6.6 0 2.943 1.167 9.927 12.651 16.987a1.316 1.316 0 0 0 1.366 0c11.484-7.06 12.651-14.044 12.651-16.987 0-3.645-2.985-6.6-6.667-6.6S16 8 16 8s-2.985-4-6.667-4z"/></symbol><symbol id="icon-heart-filled" viewBox="0 0 32 32"><path d="M9.333 4c-3.681 0-6.667 2.955-6.667 6.6 0 2.943 1.167 9.927 12.651 16.987a1.316 1.316 0 0 0 1.366 0c11.484-7.06 12.651-14.044 12.651-16.987 0-3.645-2.985-6.6-6.667-6.6S16 8 16 8s-2.985-4-6.667-4z"/></symbol><symbol id="icon-home" viewBox="0 0 32 32"><path stroke-linejoin="round" stroke-linecap="round" stroke-width="1.778" d="m4 12 12-9.333L28 12v14.667a2.668 2.668 0 0 1-2.667 2.667H6.666a2.668 2.668 0 0 1-2.667-2.667V12z"/><path stroke-linejoin="round" stroke-linecap="round" stroke-width="1.778" d="M12 29.333V16h8v13.333"/></symbol><symbol id="icon-moon" viewBox="0 0 32 32"><path fill="none" stroke="#5f6775" style="stroke:var(--color2,#5f6775)" stroke-linejoin="round" stroke-linecap="round" stroke-width="2.286" d="M28 17.053a11.994 11.994 0 0 1-7.873 10.182A12.003 12.003 0 0 1 4.338 18.56 12.002 12.002 0 0 1 14.946 3.999 9.335 9.335 0 0 0 28 17.053v0z"/></symbol><symbol id="icon-search" viewBox="0 0 32 32"><path d="M13.333 23.6c2.367 0 4.665-.753 6.529-2.138l5.861 5.568 1.885-1.791-5.861-5.568a9.755 9.755 0 0 0 2.252-6.204c0-5.587-4.785-10.133-10.667-10.133S2.665 7.88 2.665 13.467c0 5.587 4.785 10.133 10.667 10.133zm0-17.733c4.412 0 8 3.409 8 7.6s-3.588 7.6-8 7.6-8-3.409-8-7.6 3.588-7.6 8-7.6z"/></symbol><symbol id="icon-sun" viewBox="0 0 32 32"><path fill="none" stroke="#4b48db" style="stroke:var(--color1,#4b48db)" stroke-linejoin="round" stroke-linecap="round" stroke-width="2.286" d="M16 1.778v2.586m0 23.272v2.586M5.941 5.941l1.836 1.836m16.446 16.446 1.836 1.836M1.778 16h2.586m23.272 0h2.586M5.941 26.059l1.836-1.836M24.223 7.777l1.836-1.836M22.465 16a6.465 6.465 0 1 1-12.93 0 6.465 6.465 0 0 1 12.93 0z"/></symbol><symbol id="icon-mob-menu" viewBox="0 0 32 32"><path d="M6.4 11.734V9.6h19.2v2.134H6.4zm0 5.332h19.2v-2.133H6.4v2.133zm0 5.334h19.2v-2.134H6.4V22.4z"/></symbol><symbol id="icon-close" viewBox="0 0 32 32"><path d="m26.667 7.303-1.97-1.97-7.808 7.808-7.808-7.808-1.97 1.97 7.808 7.808-7.808 7.808 1.97 1.97 7.808-7.808 7.808 7.808 1.97-1.97-7.808-7.808 7.808-7.808z"/></symbol></defs></svg>